<svg width="128" height="128" xmlns="http://www.w3.org/2000/svg">
 <title/>

 <g>
  <title>background</title>
  <rect fill="none" id="canvas_background" height="402" width="582" y="-1" x="-1"/>
 </g>
 <g>
  <title>Layer 1</title>
  <path fill="#ffffff" id="svg_1" d="m64,128a64,64 0 1 1 64,-64a64.07,64.07 0 0 1 -64,64zm0,-124a60,60 0 1 0 60,60a60.07,60.07 0 0 0 -60,-60z"/>
  <path fill="#ffffff" id="svg_2" d="m80.792107,99.629997a2,2 0 0 1 -1.379997,-0.629997l-33.66,-33.589996a2,2 0 0 1 0,-2.820004l33.66,-33.59a2,2 0 1 1 2.830002,2.83l-32.25,32.17l32.209999,32.209999a2,2 0 0 1 -1.410004,3.419998z"/>
 </g>
</svg>