<svg width="32" height="32" xmlns="http://www.w3.org/2000/svg">
 <title/>

 <g>
  <title>background</title>
  <rect fill="none" id="canvas_background" height="402" width="582" y="-1" x="-1"/>
 </g>
 <g>
  <title>Layer 1</title>
  <path fill="#ffffff" id="svg_1" d="m31,16a15,15 0 1 1 -15,-15a15,15 0 0 1 15,15zm-28,0a13,13 0 1 0 13,-13a13,13 0 0 0 -13,13z"/>
  <path fill="#ffffff" id="svg_2" d="m19.870001,10.41l-5.580001,5.59l5.580001,5.59a1,1 0 0 1 0,1.41l0,0a1,1 0 0 1 -1.410002,0l-6.359999,-6.360001a0.91,0.91 0 0 1 0,-1.28l6.359999,-6.36a1,1 0 0 1 1.410002,0l0,0a1,1 0 0 1 0,1.41z"/>
 </g>
</svg>